<svg xmlns="http://www.w3.org/2000/svg" xmlns:xlink="http://www.w3.org/1999/xlink" viewBox="0 0 155.99 155.02"><defs><style>.cls-1{fill:#40577f;}.cls-2{fill:url(#linear-gradient);}</style><linearGradient id="linear-gradient" x1="73.68" y1="100.48" x2="85.68" y2="2.74" gradientUnits="userSpaceOnUse"><stop offset="0.12" stop-color="#40577f"/><stop offset="0.26" stop-color="#3a4c6b"/><stop offset="0.5" stop-color="#313b4b"/><stop offset="0.71" stop-color="#2c3037"/><stop offset="0.86" stop-color="#2a2c30"/></linearGradient></defs><title>isaax_logo_vector</title><g id="Layer_2" data-name="Layer 2"><g id="Layer_1-2" data-name="Layer 1"><g id="Layer_2-2" data-name="Layer 2"><g id="Layer_1-2-2" data-name="Layer 1-2"><g id="レイヤー_4" data-name="レイヤー 4"><path class="cls-1" d="M9.25,114.85a.81.81,0,0,1-.81.81H3.29a.82.82,0,0,1-.82-.81V109.7a.82.82,0,0,1,.82-.81H8.44a.81.81,0,0,1,.81.81Zm0,8.4a.81.81,0,0,0-.81-.81H3.29a.82.82,0,0,0-.82.81v30.93a.82.82,0,0,0,.82.81H8.44a.81.81,0,0,0,.81-.81h0Z"/><path class="cls-1" d="M25.18,130.4A13.68,13.68,0,0,1,31,129.24h14.1a.82.82,0,0,0,.82-.82h0v-5.15a.82.82,0,0,0-.82-.81H31c-8.51,0-14.93,4.37-14.93,10.17v1.55a.84.84,0,0,0,.48.75l20.22,10.71a.79.79,0,0,1,.34,1.08.72.72,0,0,1-.36.35,13.69,13.69,0,0,1-5.78,1.17H16.85a.81.81,0,0,0-.81.81h0v5.15a.82.82,0,0,0,.81.82H31c8.51,0,14.93-4.38,14.93-10.18v-1.55a.84.84,0,0,0-.48-.75L25.16,131.82a.8.8,0,0,1,0-1.43Z"/><path class="cls-1" d="M67.58,122.46H53.47a.81.81,0,0,0-.81.81h0v5.15a.82.82,0,0,0,.81.82h14.1c5.05,0,8.14,2.19,8.14,3.39v12.2c0,1.2-3.09,3.4-8.14,3.4H60.25a.82.82,0,0,1-.81-.82V145.5c0-1.2,3.09-3.39,8.14-3.39h4.61a.82.82,0,0,0,.81-.82h0v-5.14a.81.81,0,0,0-.81-.81H67.58c-8.5,0-14.92,4.37-14.92,10.17v8.68a.82.82,0,0,0,.81.82h14.1c8.51,0,14.92-4.38,14.92-10.18v-12.2C82.5,126.81,76.08,122.46,67.58,122.46Z"/><path class="cls-1" d="M103.65,122.46H89.55a.81.81,0,0,0-.81.81h0v5.15a.82.82,0,0,0,.81.82h14.1c5,0,8.14,2.19,8.14,3.39v12.2c0,1.2-3.09,3.4-8.14,3.4H96.33a.82.82,0,0,1-.81-.82V145.5c0-1.2,3.09-3.39,8.13-3.39h4.61a.82.82,0,0,0,.81-.82h0v-5.14a.81.81,0,0,0-.81-.81h-4.61c-8.51,0-14.92,4.37-14.92,10.17v8.68a.82.82,0,0,0,.82.82h14.1c8.5,0,14.92-4.38,14.92-10.18v-12.2C118.57,126.81,112.16,122.46,103.65,122.46Z"/><path class="cls-1" d="M154.38,154.19a.84.84,0,0,1-.81.82H148.4a.81.81,0,0,1-.81-.77h0c-.17-3.64-1.5-6.17-2.61-7l-2.47-1.87a.81.81,0,0,1-.12-1.14l.12-.12,4.34-3.3a.81.81,0,0,1,1,.07l1.29,1c3.05,2.34,5.09,6.88,5.26,12.38Zm-29.84-30.92c.18,5.5,2.23,10,5.27,12.38l1.29.95a.8.8,0,0,0,1,.07l4.34-3.3a.81.81,0,0,0,.12-1.13l-.12-.12-2.48-1.88c-1.1-.86-2.42-3.39-2.6-7h0a.81.81,0,0,0-.81-.77h-5.14a.82.82,0,0,0-.82.81Zm29-.81h-5.16a.82.82,0,0,0-.82.81h0c-.17,3.5-1.39,5.94-2.47,6.89L129.81,141.8c-3,2.34-5.07,6.88-5.26,12.38h0a.81.81,0,0,0,.81.81h5.16a.81.81,0,0,0,.81-.81h0c.18-3.64,1.5-6.14,2.6-7l15.2-11.52c3-2.34,5.07-6.88,5.26-12.38h0a.81.81,0,0,0-.81-.81Z"/></g><g id="レイヤー_4-2" data-name="レイヤー 4-2"><path class="cls-2" d="M61,63.88a8.14,8.14,0,1,1-8.14-8.14A8.13,8.13,0,0,1,61,63.88Zm42-8.14a8.14,8.14,0,1,0,8.14,8.14A8.14,8.14,0,0,0,103.08,55.74ZM23.35,35.29a1,1,0,0,0-1-.28,30.52,30.52,0,0,0-17,46.74,1,1,0,0,0,.78.41h.12a1,1,0,0,0,.77-.62L23.54,36.25A.94.94,0,0,0,23.35,35.29ZM86.13,63.88a17,17,0,0,1,17-17h.81a1,1,0,0,0,.9-.58l1.91-5.22a.59.59,0,0,0,0-.22,12.21,12.21,0,0,0-8.58-15,12.34,12.34,0,0,0-3.2-.43,12,12,0,0,0-3.9.65h0a.84.84,0,0,1-.27,0,.8.8,0,0,1-.84-.72v0A28.62,28.62,0,0,0,79.81,6.56a.94.94,0,0,0-.6-.22.69.69,0,0,0-.25,0,1,1,0,0,0-.65.59L62.89,49.35a1,1,0,0,0,.31,1.07A17,17,0,0,1,52.91,80.84H52.1a1,1,0,0,0-.89.63L46.75,93.71a1,1,0,0,0,.59,1.22,1,1,0,0,0,.3,0H86.4a1,1,0,0,0,.89-.63l5.79-15.91a1,1,0,0,0-.31-1.07A17.09,17.09,0,0,1,86.13,63.88Zm-50.19,0a17,17,0,0,1,17-17h.81a1,1,0,0,0,.89-.63l16-43.8A1,1,0,0,0,70,1.25h0A28.52,28.52,0,0,0,33.16,28.51a30.09,30.09,0,0,0,.48,5.19,1.56,1.56,0,0,1,0,.68L13.71,89a1,1,0,0,0,.38,1.12A30.36,30.36,0,0,0,30.51,95h5.72a1,1,0,0,0,.89-.63l5.79-15.91a1,1,0,0,0-.31-1.08A17,17,0,0,1,35.94,63.88ZM149.71,48.27a1,1,0,0,0-.74-.35h-.15a.93.93,0,0,0-.74.61L131.85,93.11a1,1,0,0,0,.59,1.22.8.8,0,0,0,.3.06h.19a28.75,28.75,0,0,0,16.78-46.11Zm-9.06-7.5a28.7,28.7,0,0,0-23.58-1.48,1,1,0,0,0-.55.56l-3.45,9.49a1,1,0,0,0,.31,1.07,17,17,0,0,1-10.29,30.42h-.81a1,1,0,0,0-.89.63L96.93,93.7a1,1,0,0,0,.59,1.22,1.06,1.06,0,0,0,.31,0h23.32a1,1,0,0,0,.89-.63L141.11,42A1,1,0,0,0,140.65,40.77Z"/></g></g></g></g></g></svg>